<svg xmlns="http://www.w3.org/2000/svg" id="SvgjsSvg322097" width="4096" height="1903.6848989603857" version="1.1" xmlns:xlink="http://www.w3.org/1999/xlink" xmlns:svgjs="http://svgjs.com/svgjs"><defs id="SvgjsDefs322098"></defs><g id="SvgjsG322099" transform="translate(328, 328) scale(34.4)" opacity="1"><defs id="SvgjsDefs80779"></defs><g id="SvgjsG80780" transform="scale(0.21645021645021645)" opacity="1"><g id="SvgjsG80781" class="5l0Q9gi-A" transform="translate(152.34983092828668, -35.480036107193214) scale(1.5638928067700981)" light-content="false" non-strokable="false" fill="#030303"><path fill="none" d="M10.615 24.687H89.01v11.467H10.615zm68.346 38.38c0-.968-.787-1.755-1.755-1.755H22.418c-.967 0-1.754.787-1.754 1.755s.787 1.755 1.754 1.755h54.788c.968 0 1.755-.787 1.755-1.755zm-53.686 3.755h49.074v8.835H25.275z"></path><path d="M91.01 22.687H8.615v15.467H91.01V22.687zm-2 13.466H10.615V24.687H89.01v11.466zm-.121 39.504V39.603h-3.674v36.055h-8.213v-8.835h.204c2.07 0 3.755-1.685 3.755-3.755s-1.685-3.755-3.755-3.755H22.418c-2.07 0-3.754 1.685-3.754 3.755s1.684 3.755 3.754 3.755h.205v8.835H14.41V39.603h-3.673v36.055h-5.05v1.656h88.625v-1.656h-5.423zM22.418 64.822c-.967 0-1.754-.787-1.754-1.755s.787-1.755 1.754-1.755h54.788c.968 0 1.755.787 1.755 1.755s-.787 1.755-1.755 1.755H22.418zM74.35 75.657H25.275v-8.835H74.35v8.835z"></path></g><g id="SvgjsG80782" class="text" transform="translate(230.92, 135.37300459623546) scale(1)" light-content="false" fill="#060505"><path d="M-230.92 -35.62L-230.92 0L-223.91 0L-223.91 -14.1L-221.01 -14.1C-218.22 -14.1 -216.28 -15 -215.2 -16.79C-214.12 -18.59 -213.58 -21.26 -213.58 -24.8C-213.58 -28.33 -214.19 -31.02 -215.41 -32.86C-216.63 -34.7 -218.66 -35.62 -221.5 -35.62ZM-223.49 -20.53L-223.91 -20.53L-223.91 -29.15L-223.12 -29.15C-222.13 -29.15 -221.46 -28.82 -221.13 -28.15C-220.8 -27.49 -220.63 -26.41 -220.63 -24.92C-220.63 -23.81 -220.7 -22.96 -220.82 -22.37C-220.94 -21.78 -221.21 -21.32 -221.61 -21C-222.01 -20.68 -222.64 -20.53 -223.49 -20.53Z M-203.18 -30.35L-203.18 0L-195.92 0L-195.92 -23.22C-195.92 -23.61 -195.31 -23.95 -194.08 -24.24C-192.85 -24.53 -191.72 -24.67 -190.7 -24.67L-190.7 -30.73C-192.02 -30.73 -193.14 -30.4 -194.03 -29.75C-194.93 -29.1 -195.56 -28.18 -195.92 -26.99L-195.92 -30.35Z M-181.49 0L-166.36 0L-166.36 -5.43L-173.57 -5.43L-166.44 -25.42L-166.44 -30.35L-181.16 -30.35L-181.16 -24.63L-173.94 -24.63L-181.49 -4.44Z M-156.9 0.46L-156.9 5.06L-148.73 5.06C-147.46 5.06 -146.53 4.78 -145.94 4.21C-145.34 3.64 -144.95 2.76 -144.75 1.58L-139.11 -30.35L-146.08 -30.35L-147.7 -15.55L-148.49 -8L-149.15 -15.55L-150.52 -30.35L-157.44 -30.35L-152.71 -0.62C-152.69 -0.51 -152.67 -0.36 -152.67 -0.17C-152.67 0.25 -152.92 0.46 -153.42 0.46Z M-129.58 -8.79C-129.58 -2.71 -126.58 0.33 -120.58 0.33C-117.7 0.33 -115.47 -0.43 -113.86 -1.95C-112.26 -3.47 -111.46 -5.64 -111.46 -8.46C-111.46 -10.59 -111.89 -12.35 -112.74 -13.75C-113.6 -15.14 -114.83 -16.43 -116.43 -17.62L-120.91 -20.9C-121.77 -21.51 -122.2 -22.36 -122.2 -23.47C-122.2 -23.97 -122.07 -24.36 -121.8 -24.65C-121.54 -24.94 -121.16 -25.09 -120.66 -25.09C-120.11 -25.09 -119.72 -24.83 -119.48 -24.32C-119.25 -23.81 -119.13 -23.19 -119.13 -22.47L-119.13 -21.31L-111.62 -21.31L-111.62 -21.89C-111.62 -27.75 -114.57 -30.68 -120.46 -30.68C-122.11 -30.68 -123.62 -30.41 -124.97 -29.85C-126.33 -29.3 -127.41 -28.48 -128.23 -27.39C-129.05 -26.3 -129.45 -24.98 -129.45 -23.43C-129.45 -21.44 -129.16 -19.9 -128.58 -18.8C-128 -17.71 -127.05 -16.65 -125.72 -15.63L-121.86 -12.65C-120.87 -11.9 -120.14 -11.2 -119.69 -10.53C-119.23 -9.87 -119 -8.96 -119 -7.8C-119 -6.22 -119.49 -5.43 -120.46 -5.43C-121.09 -5.43 -121.55 -5.62 -121.82 -5.99C-122.1 -6.36 -122.24 -6.91 -122.24 -7.63L-122.28 -11.2L-129.54 -11.2Z M-98.6 -0.87C-97.88 -0.07 -96.57 0.33 -94.66 0.33C-93.92 0.33 -93.15 0.27 -92.36 0.15C-91.57 0.02 -90.97 -0.1 -90.56 -0.21L-90.56 -5.18C-90.64 -5.18 -90.81 -5.17 -91.06 -5.14C-91.31 -5.11 -91.57 -5.1 -91.84 -5.1C-92.2 -5.1 -92.42 -5.22 -92.51 -5.47C-92.59 -5.72 -92.63 -6.11 -92.63 -6.63L-92.63 -23.68L-90.56 -23.68L-90.56 -29.19L-92.63 -29.19L-92.63 -35.62L-99.68 -35.62L-99.68 -29.19L-101.71 -29.19L-101.71 -23.68L-99.68 -23.68L-99.68 -4.73C-99.68 -2.96 -99.32 -1.67 -98.6 -0.87Z M-79.3 -2.01C-78.43 -0.45 -76.82 0.33 -74.47 0.33C-73.39 0.33 -72.46 -0.01 -71.67 -0.7C-70.88 -1.4 -70.31 -2.36 -69.95 -3.61L-69.95 0L-62.74 0L-62.74 -23.14C-62.74 -25.54 -63.52 -27.4 -65.1 -28.71C-66.68 -30.03 -68.72 -30.68 -71.24 -30.68C-74.39 -30.68 -76.66 -30.05 -78.06 -28.78C-79.45 -27.5 -80.15 -25.38 -80.15 -22.39L-80.15 -21.4L-73.1 -21.4L-73.1 -23.22C-73.1 -23.83 -72.96 -24.31 -72.67 -24.67C-72.38 -25.03 -72.04 -25.21 -71.65 -25.21C-71.21 -25.21 -70.83 -25 -70.51 -24.57C-70.19 -24.14 -70.03 -23.52 -70.03 -22.72L-70.03 -19.7L-70.03 -19.61L-72.02 -18.95C-74.29 -18.23 -75.98 -17.57 -77.08 -16.98C-78.19 -16.39 -79.05 -15.45 -79.67 -14.18C-80.3 -12.91 -80.61 -11.08 -80.61 -8.71C-80.61 -5.81 -80.17 -3.57 -79.3 -2.01ZM-70.43 -5.99C-70.66 -5.54 -71.06 -5.31 -71.61 -5.31C-72.69 -5.31 -73.23 -6.21 -73.23 -8L-73.23 -11.9C-73.23 -13.03 -72.97 -13.92 -72.46 -14.55C-71.95 -15.19 -71.15 -15.72 -70.08 -16.13L-70.08 -7.67C-70.08 -7.01 -70.19 -6.45 -70.43 -5.99Z M-51.67 -30.35L-51.67 0L-44.41 0L-44.41 -21.35C-44.41 -22.49 -44.29 -23.39 -44.06 -24.07C-43.82 -24.75 -43.33 -25.09 -42.58 -25.09C-42.03 -25.09 -41.62 -24.85 -41.36 -24.38C-41.1 -23.91 -40.97 -23.34 -40.97 -22.68L-40.97 0L-33.84 0L-33.84 -23.43C-33.84 -25.75 -34.33 -27.54 -35.31 -28.8C-36.29 -30.06 -37.8 -30.68 -39.85 -30.68C-41.09 -30.68 -42.09 -30.3 -42.83 -29.52C-43.58 -28.75 -44.1 -27.74 -44.41 -26.5L-44.41 -30.35Z M-20.9 -2.24C-19.54 -0.53 -17.3 0.33 -14.18 0.33C-10.84 0.33 -8.48 -0.5 -7.11 -2.18C-5.74 -3.85 -5.06 -6.45 -5.06 -9.99L-5.06 -11.73L-12.27 -11.73L-12.27 -8.79C-12.27 -7.96 -12.29 -7.33 -12.34 -6.9C-12.38 -6.48 -12.52 -6.1 -12.75 -5.76C-12.99 -5.43 -13.38 -5.27 -13.93 -5.27C-14.65 -5.27 -15.12 -5.56 -15.34 -6.16C-15.56 -6.75 -15.67 -7.57 -15.67 -8.62L-15.67 -14.51L-5.14 -14.51C-5.09 -15.89 -5.06 -17.69 -5.06 -19.9L-5.06 -22.1C-5.06 -27.82 -7.98 -30.68 -13.81 -30.68C-16.68 -30.68 -18.92 -29.95 -20.53 -28.49C-22.13 -27.02 -22.93 -24.89 -22.93 -22.1L-22.93 -9.91C-22.93 -6.51 -22.25 -3.95 -20.9 -2.24ZM-12.27 -18.12L-15.72 -18.12L-15.72 -22.02C-15.72 -24.2 -15.11 -25.29 -13.89 -25.29C-12.81 -25.29 -12.27 -24.2 -12.27 -22.02Z M5.85 0L13.02 0L13.02 -14.31L17.54 0L25.25 0L19.45 -17.17L24.01 -30.35L16.5 -30.35L13.02 -19.9L13.02 -35.83L5.85 -35.83Z M51.71 0L67.01 0L67.01 -6.55L59.05 -6.55L67.38 -29.4L67.38 -35.62L52.49 -35.62L52.49 -29.07L59.83 -29.07L51.71 -6.47Z M88.36 -23.14L85.96 -22.18L85.96 -35.78L78.62 -35.78L78.62 -19.36L76.3 -18.45L76.3 -12.52L78.62 -13.43L78.62 0L85.96 0L85.96 -16.3L88.36 -17.25Z M97.77 -9.08C97.77 -2.81 100.8 0.33 106.85 0.33C112.91 0.33 115.94 -2.81 115.94 -9.08L115.94 -21.27C115.94 -24.15 115.13 -26.43 113.51 -28.13C111.89 -29.83 109.67 -30.68 106.85 -30.68C104.04 -30.68 101.82 -29.83 100.2 -28.13C98.58 -26.43 97.77 -24.15 97.77 -21.27ZM108.14 -5.89C107.86 -5.47 107.44 -5.27 106.85 -5.27C106.27 -5.27 105.85 -5.47 105.57 -5.89C105.29 -6.3 105.15 -6.87 105.15 -7.59L105.15 -22.43C105.15 -24.2 105.72 -25.09 106.85 -25.09C107.99 -25.09 108.55 -24.2 108.55 -22.43L108.55 -7.59C108.55 -6.87 108.42 -6.3 108.14 -5.89Z M129.25 -0.87C129.96 -0.07 131.28 0.33 133.18 0.33C133.93 0.33 134.7 0.27 135.49 0.15C136.27 0.02 136.88 -0.1 137.29 -0.21L137.29 -5.18C137.21 -5.18 137.04 -5.17 136.79 -5.14C136.54 -5.11 136.28 -5.1 136 -5.1C135.64 -5.1 135.42 -5.22 135.34 -5.47C135.26 -5.72 135.22 -6.11 135.22 -6.63L135.22 -23.68L137.29 -23.68L137.29 -29.19L135.22 -29.19L135.22 -35.62L128.17 -35.62L128.17 -29.19L126.14 -29.19L126.14 -23.68L128.17 -23.68L128.17 -4.73C128.17 -2.96 128.53 -1.67 129.25 -0.87Z M147.86 -30.35L147.86 0L155.12 0L155.12 -21.35C155.12 -22.49 155.24 -23.39 155.47 -24.07C155.71 -24.75 156.2 -25.09 156.94 -25.09C157.5 -25.09 157.9 -24.85 158.17 -24.38C158.43 -23.91 158.56 -23.34 158.56 -22.68L158.56 0L165.69 0L165.69 -23.43C165.69 -25.75 165.2 -27.54 164.22 -28.8C163.24 -30.06 161.73 -30.68 159.68 -30.68C158.44 -30.68 157.44 -30.3 156.7 -29.52C155.95 -28.75 155.42 -27.74 155.12 -26.5L155.12 -30.35Z M176.81 -32.38L184.06 -32.38L184.06 -37.44L176.81 -37.44ZM176.81 0L184.06 0L184.06 -30.35L176.81 -30.35Z M195.22 0L202.39 0L202.39 -14.31L206.91 0L214.62 0L208.82 -17.17L213.38 -30.35L205.87 -30.35L202.39 -19.9L202.39 -35.83L195.22 -35.83Z M223.83 -32.38L231.08 -32.38L231.08 -37.44L223.83 -37.44ZM223.83 0L231.08 0L231.08 -30.35L223.83 -30.35Z"></path></g><g id="SvgjsG80783" class="text" transform="translate(230.74570339117437, 167.2869835231681) scale(1)" light-content="false" fill="#030303"><path d="M-25.97 -4.22C-25.97 -6.27 -27.25 -7.56 -29.8 -8.07C-28.72 -8.27 -27.9 -8.67 -27.34 -9.27C-26.78 -9.87 -26.5 -10.67 -26.5 -11.65C-26.5 -12.75 -26.91 -13.63 -27.74 -14.29C-28.56 -14.95 -29.86 -15.27 -31.62 -15.27L-37.6 -15.27L-37.6 -14.45L-35.35 -13.95L-35.35 -1.32L-37.6 -0.82L-37.6 0L-31.47 0C-29.77 0 -28.43 -0.39 -27.45 -1.16C-26.47 -1.94 -25.97 -2.96 -25.97 -4.22ZM-29.56 -9.22C-30.17 -8.74 -31.02 -8.5 -32.1 -8.5L-33.27 -8.5L-33.27 -13.97C-32.64 -14.12 -32.12 -14.2 -31.72 -14.2C-30.82 -14.2 -30.09 -13.97 -29.51 -13.5C-28.94 -13.03 -28.65 -12.34 -28.65 -11.42C-28.65 -10.44 -28.95 -9.71 -29.56 -9.22ZM-31.77 -1.02C-32.32 -1.02 -32.82 -1.09 -33.27 -1.22L-33.27 -7.47L-32.25 -7.47C-30.93 -7.47 -29.93 -7.21 -29.24 -6.69C-28.55 -6.16 -28.2 -5.38 -28.2 -4.35C-28.2 -3.2 -28.53 -2.36 -29.2 -1.82C-29.87 -1.29 -30.72 -1.03 -31.77 -1.02Z M-23.65 0L-17.07 0L-17.07 -0.82L-19.32 -1.32L-19.32 -13.95L-17.07 -14.45L-17.07 -15.27L-23.65 -15.27L-23.65 -14.45L-21.4 -13.95L-21.4 -1.32L-23.65 -0.82Z M-13.7 -14.55C-14.57 -13.8 -15 -12.75 -15 -11.4C-15 -9.47 -14.15 -8.17 -12.45 -7.52L-9.67 -6.45C-8.87 -6.13 -8.31 -5.74 -7.97 -5.26C-7.64 -4.79 -7.47 -4.21 -7.47 -3.52C-7.47 -2.76 -7.77 -2.14 -8.37 -1.66C-8.97 -1.19 -9.79 -0.95 -10.82 -0.95C-11.72 -0.95 -12.62 -1.07 -13.52 -1.3L-14 -3.45L-14.92 -3.45L-15.27 -0.5C-14.66 -0.25 -13.96 -0.06 -13.17 0.08C-12.39 0.21 -11.66 0.27 -10.97 0.27C-9.17 0.27 -7.8 -0.11 -6.86 -0.87C-5.92 -1.64 -5.45 -2.71 -5.45 -4.07C-5.45 -5.12 -5.66 -5.96 -6.09 -6.57C-6.51 -7.19 -7.17 -7.67 -8.05 -8L-10.75 -9.1C-11.55 -9.42 -12.13 -9.78 -12.5 -10.19C-12.87 -10.6 -13.05 -11.15 -13.05 -11.85C-13.05 -12.68 -12.77 -13.32 -12.2 -13.76C-11.63 -14.2 -10.86 -14.42 -9.87 -14.42C-9.54 -14.42 -9.15 -14.4 -8.7 -14.35C-8.25 -14.3 -7.92 -14.24 -7.7 -14.17L-7.15 -11.75L-6.22 -11.75L-5.97 -15C-7.36 -15.45 -8.71 -15.67 -10.02 -15.67C-11.61 -15.67 -12.83 -15.3 -13.7 -14.55Z M-4.42 -15.27L-4.22 -11.77L-3.32 -11.77L-2.82 -13.97L0.72 -13.97L0.72 -1.32L-1.95 -0.82L-1.95 0L5.45 0L5.45 -0.82L2.8 -1.32L2.8 -13.97L6.32 -13.97L6.8 -11.77L7.78 -11.77L7.92 -15.27Z M17.7 -3.1L19.17 0L22.82 0L22.82 -0.82L20.87 -1.35C20.36 -2.33 19.85 -3.37 19.35 -4.47C18.98 -5.24 18.71 -5.78 18.54 -6.09C18.36 -6.4 18.16 -6.65 17.92 -6.84C17.69 -7.03 17.37 -7.18 16.95 -7.3C18.27 -7.6 19.2 -8.13 19.75 -8.9C20.3 -9.67 20.57 -10.51 20.57 -11.42C20.57 -12.52 20.13 -13.44 19.25 -14.17C18.37 -14.91 17.02 -15.27 15.22 -15.27L9.15 -15.27L9.15 -14.45L11.47 -13.95L11.47 -1.32L9.15 -0.82L9.15 0L15.87 0L15.87 -0.82L13.55 -1.32L13.55 -6.97L14.5 -6.97C15.02 -6.97 15.38 -6.92 15.6 -6.8C15.82 -6.68 16.05 -6.4 16.31 -5.94C16.57 -5.48 17.03 -4.53 17.7 -3.1ZM17.47 -8.87C16.92 -8.27 16.12 -7.97 15.07 -7.97L13.55 -7.97L13.55 -13.97C14.13 -14.14 14.66 -14.22 15.12 -14.22C16.17 -14.22 16.97 -13.96 17.5 -13.44C18.03 -12.91 18.3 -12.19 18.3 -11.27C18.3 -10.27 18.02 -9.47 17.47 -8.87Z M35.77 -13.45C34.61 -14.92 32.8 -15.65 30.35 -15.65C27.9 -15.65 26.08 -14.91 24.9 -13.44C23.72 -11.96 23.12 -10.05 23.12 -7.7C23.12 -5.35 23.72 -3.44 24.91 -1.97C26.1 -0.51 27.92 0.22 30.35 0.22C32.78 0.22 34.59 -0.51 35.76 -1.97C36.94 -3.44 37.52 -5.35 37.52 -7.7C37.52 -10.07 36.94 -11.98 35.77 -13.45ZM34.14 -12.42C34.9 -11.07 35.27 -9.5 35.27 -7.7C35.27 -5.9 34.92 -4.33 34.22 -2.99C33.53 -1.65 32.26 -0.97 30.42 -0.97C28.57 -0.97 27.27 -1.65 26.51 -3C25.75 -4.35 25.37 -5.92 25.37 -7.7C25.37 -9.52 25.73 -11.1 26.44 -12.44C27.15 -13.78 28.4 -14.45 30.2 -14.45C32.07 -14.45 33.38 -13.77 34.14 -12.42Z"></path></g></g></g></svg>